<mxfile host="65bd71144e">
    <diagram id="0QDek0pJiB0GgypKWHZS" name="Page-1">
        <mxGraphModel dx="1370" dy="631" grid="1" gridSize="10" guides="1" tooltips="1" connect="1" arrows="1" fold="1" page="1" pageScale="1" pageWidth="850" pageHeight="1100" math="0" shadow="0">
            <root>
                <mxCell id="0"/>
                <mxCell id="1" parent="0"/>
                <mxCell id="2" value="" style="endArrow=none;html=1;" edge="1" parent="1">
                    <mxGeometry width="50" height="50" relative="1" as="geometry">
                        <mxPoint x="440" y="520" as="sourcePoint"/>
                        <mxPoint x="440" y="70" as="targetPoint"/>
                    </mxGeometry>
                </mxCell>
                <mxCell id="3" value="Truthy" style="text;html=1;strokeColor=none;fillColor=none;align=center;verticalAlign=middle;whiteSpace=wrap;rounded=0;" vertex="1" parent="1">
                    <mxGeometry x="210" y="40" width="60" height="30" as="geometry"/>
                </mxCell>
                <mxCell id="4" value="Falsy" style="text;html=1;strokeColor=none;fillColor=none;align=center;verticalAlign=middle;whiteSpace=wrap;rounded=0;" vertex="1" parent="1">
                    <mxGeometry x="590" y="40" width="60" height="30" as="geometry"/>
                </mxCell>
                <mxCell id="9" value="Numbers that aren't &lt;br&gt;0, -0 or NaN" style="html=1;" vertex="1" parent="1">
                    <mxGeometry x="80" y="70" width="120" height="50" as="geometry"/>
                </mxCell>
                <mxCell id="10" value="0" style="html=1;" vertex="1" parent="1">
                    <mxGeometry x="480" y="70" width="110" height="50" as="geometry"/>
                </mxCell>
                <mxCell id="11" value="NaN" style="html=1;" vertex="1" parent="1">
                    <mxGeometry x="670" y="70" width="110" height="50" as="geometry"/>
                </mxCell>
                <mxCell id="12" value="Empty String - &quot;&quot;" style="html=1;" vertex="1" parent="1">
                    <mxGeometry x="480" y="260" width="110" height="50" as="geometry"/>
                </mxCell>
                <mxCell id="13" value="undefined" style="html=1;" vertex="1" parent="1">
                    <mxGeometry x="670" y="260" width="110" height="50" as="geometry"/>
                </mxCell>
                <mxCell id="14" value="null" style="html=1;" vertex="1" parent="1">
                    <mxGeometry x="480" y="350" width="110" height="50" as="geometry"/>
                </mxCell>
                <mxCell id="15" value="0n (BigInt)" style="html=1;" vertex="1" parent="1">
                    <mxGeometry x="480" y="160" width="110" height="50" as="geometry"/>
                </mxCell>
                <mxCell id="16" value="Objects&lt;br&gt;other than&lt;br&gt;document.all" style="html=1;" vertex="1" parent="1">
                    <mxGeometry x="280" y="70" width="110" height="50" as="geometry"/>
                </mxCell>
                <mxCell id="17" value="Arrays that &lt;br&gt;aren't empty" style="html=1;" vertex="1" parent="1">
                    <mxGeometry x="80" y="160" width="110" height="50" as="geometry"/>
                </mxCell>
                <mxCell id="18" value="Empty Arrays&lt;br&gt;when using !!" style="html=1;" vertex="1" parent="1">
                    <mxGeometry x="280" y="350" width="110" height="50" as="geometry"/>
                </mxCell>
                <mxCell id="19" value="Empty Arrays &lt;br&gt;when you use if([])" style="html=1;" vertex="1" parent="1">
                    <mxGeometry x="480" y="450" width="110" height="50" as="geometry"/>
                </mxCell>
                <mxCell id="20" value="-0" style="html=1;" vertex="1" parent="1">
                    <mxGeometry x="670" y="170" width="110" height="50" as="geometry"/>
                </mxCell>
                <mxCell id="24" value="document.all" style="html=1;" vertex="1" parent="1">
                    <mxGeometry x="670" y="350" width="110" height="50" as="geometry"/>
                </mxCell>
                <mxCell id="26" value="" style="endArrow=none;html=1;" edge="1" parent="1">
                    <mxGeometry width="50" height="50" relative="1" as="geometry">
                        <mxPoint x="840" y="520" as="sourcePoint"/>
                        <mxPoint x="840" y="70" as="targetPoint"/>
                    </mxGeometry>
                </mxCell>
                <mxCell id="28" value="Nullish" style="text;html=1;strokeColor=none;fillColor=none;align=center;verticalAlign=middle;whiteSpace=wrap;rounded=0;" vertex="1" parent="1">
                    <mxGeometry x="970" y="40" width="60" height="30" as="geometry"/>
                </mxCell>
                <mxCell id="29" value="undefined" style="html=1;" vertex="1" parent="1">
                    <mxGeometry x="900" y="70" width="110" height="50" as="geometry"/>
                </mxCell>
                <mxCell id="30" value="null" style="html=1;" vertex="1" parent="1">
                    <mxGeometry x="1090" y="70" width="110" height="50" as="geometry"/>
                </mxCell>
                <mxCell id="31" value="false" style="html=1;" vertex="1" parent="1">
                    <mxGeometry x="670" y="450" width="110" height="50" as="geometry"/>
                </mxCell>
                <mxCell id="32" value="Strings that &lt;br&gt;aren't empty" style="html=1;" vertex="1" parent="1">
                    <mxGeometry x="280" y="160" width="110" height="50" as="geometry"/>
                </mxCell>
                <mxCell id="33" value="Big Ints &lt;br&gt;other than 0" style="html=1;" vertex="1" parent="1">
                    <mxGeometry x="80" y="260" width="110" height="50" as="geometry"/>
                </mxCell>
                <mxCell id="34" value="Symbols" style="html=1;" vertex="1" parent="1">
                    <mxGeometry x="280" y="260" width="110" height="50" as="geometry"/>
                </mxCell>
                <mxCell id="35" value="true" style="html=1;" vertex="1" parent="1">
                    <mxGeometry x="85" y="350" width="110" height="50" as="geometry"/>
                </mxCell>
            </root>
        </mxGraphModel>
    </diagram>
</mxfile>